<svg width="1223" height="15" viewBox="0 0 1223 15" fill="none" xmlns="http://www.w3.org/2000/svg">
<path d="M35.3557 6.82512C113.14 3.42725 192.399 4.31369 269.163 9.63209C284.811 10.7032 300.572 12.5129 316.446 13.0669C332.321 13.6209 345.361 11.5527 359.534 9.00429C393.551 2.87335 430.062 4.42447 467.253 5.5694C541.977 7.93314 615.793 0.805082 690.402 3.57508C728.841 5.01548 766.713 7.74851 805.152 9.18891C843.591 10.6293 882.143 11.4049 920.808 11.8111C963.216 12.2543 1005.74 12.2175 1048.14 12.1067C1070.37 12.0697 1092.48 11.9589 1114.7 11.9219C1121.28 11.9219 1184.66 11.0725 1185.34 12.2175L1183.42 13.7686L1184.66 13.5102C1189.31 12.5868 1185 10.1861 1180.36 11.1094L1179.11 11.368C1177.41 11.7004 1176.73 12.3283 1177.18 12.9192C1179.79 17.2404 1204.17 12.3651 1184.21 9.59512C1178.31 8.78259 1170.83 9.11505 1164.59 9.07812C1153.48 9.07812 1142.48 9.07812 1131.37 9.07812C1109.15 9.07812 1087.04 9.15201 1064.81 9.22588C978.183 9.44748 891.327 9.59522 805.152 6.34508C761.27 4.68308 717.956 1.1744 673.848 0.214135C630.873 -0.709199 588.353 1.58068 545.605 2.76254C526.102 3.27961 506.486 3.5751 486.87 3.2427C465.326 2.83643 443.895 1.69141 422.238 1.54368C405.797 1.43288 389.015 1.83918 373.481 3.64891C352.164 6.16038 336.743 11.2941 312.478 9.96448C287.986 8.63488 264.061 6.16033 239.569 4.86766C217.912 3.72273 196.028 2.87332 174.144 2.39319C126.974 1.35906 79.8042 1.95 33.088 4.01826C27.6453 4.23986 30.0265 6.936 35.3557 6.67747V6.82512Z" fill="#2F2012"/>
<path d="M3.15193 8.4723C31.3834 10.257 61.429 10.7579 90.2274 10.069C124.468 9.25498 154.06 3.99492 188.867 4.18278C231.044 4.40195 273.448 6.40578 315.625 7.12591C357.803 7.84603 397.032 8.15912 437.735 8.19043C519.821 8.22174 601.228 6.03005 683.088 8.19043C766.422 10.4134 849.529 9.34894 933.089 8.62881C1028.33 7.81476 1123.68 7.03205 1218.92 6.21799C1224.36 6.18668 1224.36 3.83845 1218.92 3.86976C1134.79 4.58988 1050.78 5.27868 966.649 5.9988C884.109 6.68762 800.662 8.40969 718.235 6.71896C677.532 5.8736 637.396 4.46461 596.466 4.62116C556.443 4.77771 516.534 5.56041 476.511 5.74827C393.177 6.1553 309.843 5.15341 226.963 2.74255C206.781 2.14767 186.26 1.36495 165.965 2.179C145.67 2.99306 128.436 5.71697 109.048 6.93806C76.1683 8.97319 37.9595 8.2531 5.30622 6.18665C-0.0226033 5.84224 -2.29023 8.12786 3.0386 8.44096L3.15193 8.4723Z" fill="#2F2012"/>
</svg>
