<svg width="57" height="59" viewBox="0 0 57 59" fill="none" xmlns="http://www.w3.org/2000/svg">
<path d="M26.7912 46.9952C36.9262 46.9952 46.6475 38.0959 46.1821 27.5926C45.7167 17.0893 37.6501 8.18994 26.7912 8.18994C16.6563 8.18994 6.93496 17.0893 7.40034 27.5926C7.86572 38.1476 15.8806 46.9952 26.7912 46.9952Z" fill="#272C61"/>
<path d="M13.1402 30.8524C12.1577 28.938 11.5889 26.8684 11.6406 24.6953C11.6923 22.8844 12.3645 22.2118 14.2778 22.3153C15.1568 22.367 16.1393 22.6774 17.0183 22.9361C17.3286 23.0396 17.7422 22.8327 17.7939 22.4705C18.1559 20.5561 17.8456 18.6417 16.7597 17.0377C16.4495 16.5721 14.95 15.6407 14.8983 15.2268C14.5363 13.5711 17.7939 13.7781 18.7247 13.5194C21.8272 12.5363 23.637 8.08665 20.1208 6.32747C20.1725 6.68966 20.2242 7.00008 20.2759 7.36227C22.7062 5.24091 25.0849 6.17226 27.4635 7.67273C29.4802 8.9145 31.3416 7.93142 33.41 8.70753C36.2023 9.79407 39.4601 13.3124 42.4075 10.3632C42.0972 10.3632 41.7869 10.3632 41.4766 10.3632C42.821 11.7085 43.2865 13.6746 42.5108 15.4855C42.0972 16.4168 41.1664 17.0895 41.3732 18.2278C41.5801 19.1591 42.4591 19.78 43.1313 20.3491C44.4758 21.4357 46.4924 22.9361 47.1129 24.5401C47.8368 26.351 46.5959 26.144 45.4583 27.2306C44.6827 27.9549 44.1655 28.8345 43.7518 29.7658C42.5108 32.6633 42.9245 35.8712 42.304 38.9239C41.6317 42.3388 39.1498 44.7188 35.5819 44.7188C34.0823 44.7188 32.6343 44.2532 31.445 43.2701C30.566 42.494 29.9456 41.4074 28.9631 40.7348C27.3601 39.7518 25.3434 40.1657 24.1541 41.5626C22.5511 43.477 23.3268 46.0641 24.9298 47.668C24.9815 47.3058 25.0332 46.9954 25.0849 46.6332C23.2234 47.875 21.2067 47.0471 19.6554 45.7019C18.4661 44.6671 16.9149 43.1149 17.2768 41.4074C17.5871 39.8035 18.5695 38.4065 16.9148 37.1647C15.105 35.8195 12.3127 35.716 10.2961 34.526C7.5555 32.922 5.02186 29.5589 6.67655 26.2993C7.14193 25.3679 8.02097 24.7988 8.27951 23.764C8.58977 22.6257 8.02087 21.4874 8.02087 20.3491C7.96916 17.6586 10.5547 12.5881 13.2953 11.9672C14.8983 11.605 16.6564 12.4846 18.3111 12.795C19.6038 13.0537 20.8965 13.2089 22.1892 13.3124C25.1367 13.5194 28.0323 13.3124 30.8763 12.795C31.7037 12.6398 31.3417 11.398 30.5143 11.5533C26.2225 12.3294 21.8272 12.3294 17.5353 11.3463C16.2426 11.0359 14.6397 10.1563 13.2435 10.2598C12.0025 10.3632 11.1751 11.398 10.4512 12.3294C8.64139 14.5542 6.77996 17.0895 6.67655 20.0904C6.62484 20.8665 6.88332 21.5391 6.93503 22.2635C7.09015 24.2296 6.46959 24.1779 5.74566 25.3162C5.12516 26.2992 4.8667 27.4375 4.8667 28.6276C4.91841 31.2663 6.41787 33.5429 8.48623 35.0434C9.62383 35.8712 10.9166 36.4404 12.2093 36.9578C14.0708 37.6821 17.07 37.9408 16.1392 40.6831C15.2085 43.3218 16.708 44.9775 18.6729 46.7367C20.6379 48.4959 23.3268 49.4272 25.6537 47.875C26.0156 47.668 26.0673 47.1506 25.8088 46.8402C24.7746 45.8054 23.9991 44.1497 24.9298 42.7009C25.8089 41.3557 27.4118 41.2522 28.6011 42.1318C29.5319 42.8044 30.1007 43.891 31.0314 44.6153C32.6344 45.8054 34.7545 46.1676 36.7195 45.9089C42.5626 45.1328 43.5967 39.9069 43.9587 34.8881C44.0621 33.2842 44.269 31.6803 44.9412 30.2315C45.7168 28.5241 46.8027 28.1102 48.1471 27.0754C49.9569 25.7301 48.0954 23.7122 47.0613 22.4187C46.0788 21.2287 44.786 20.4526 43.8036 19.3143C42.2006 17.5034 43.4415 16.8825 43.9069 15.1751C44.4757 13.1055 43.8035 10.9841 42.304 9.48364C42.0454 9.22494 41.6318 9.22494 41.3732 9.48364C39.2532 11.605 36.4092 8.81102 34.4443 7.82795C33.8237 7.51751 33.1515 7.20708 32.4275 7.15534C30.928 6.94838 29.7904 7.56925 28.2909 6.74141C26.6362 5.86182 25.602 4.77525 23.6371 4.77525C21.9824 4.72351 20.5346 5.39614 19.2936 6.48269C18.9833 6.74139 19.0867 7.31056 19.4487 7.51752C20.9999 8.29362 20.9999 10.1563 19.914 11.3463C19.035 12.3294 17.8457 12.5881 16.553 12.6398C15.312 12.6915 13.8641 12.5363 13.1402 13.8298C12.6748 14.6577 12.9333 15.4338 13.6055 16.0546C14.4329 16.8308 15.3118 17.2447 15.9323 18.2795C16.6046 19.4695 16.8115 20.8665 16.553 22.2118C16.8115 22.0565 17.07 21.9013 17.3286 21.7461C15.4154 21.2805 11.5888 19.6765 10.6581 22.3153C9.57219 25.2127 10.6064 28.9897 12.0026 31.5768C12.4162 32.1976 13.5538 31.5768 13.1402 30.8524Z" fill="#272C61"/>
<path d="M40.9078 27.1272C41.4766 30.1282 42.5107 33.957 46.0269 34.5779C46.6474 34.6814 47.7333 34.3192 47.4748 35.4057C47.3196 36.0784 45.665 36.9062 45.0962 37.3201C43.3898 38.4584 41.4766 39.338 39.4599 39.9071C37.5467 40.4245 35.5817 40.6315 33.6168 40.528C32.3758 40.4763 30.9279 40.321 30.0489 41.3558C28.9113 42.6494 29.2215 44.4086 27.5668 45.3916C25.8087 46.4264 23.637 46.4781 21.672 46.1677C19.6037 45.8055 17.5353 45.0812 15.6738 44.2016C14.743 43.7359 13.8122 43.2185 12.9332 42.7011C11.7956 42.0285 10.1409 41.4594 10.5029 39.8554C10.7097 39.0276 11.6405 37.9927 12.1058 37.2166C12.6229 36.3371 13.1917 35.4575 13.7088 34.5779C14.4327 33.3361 15.8805 31.7839 15.9322 30.2834C15.9322 29.6108 15.5186 29.0416 15.3118 28.4208C14.7947 27.0238 14.7947 25.8337 15.1566 24.385C15.622 22.4706 16.7079 20.7115 17.2767 18.8488C18.2075 15.9513 16.7079 7.62116 21.4651 7.6729C23.2233 7.6729 24.4643 9.53555 26.1707 9.84599C28.1356 10.1564 28.9113 8.03509 30.7211 8.03509C31.9621 8.03509 33.2031 8.60422 34.289 9.12163C34.5993 9.27685 34.9095 9.43206 35.2198 9.63902C36.4091 10.4669 36.0987 11.7604 35.7885 13.0022C35.168 15.4857 34.0305 17.9175 33.1514 20.3493C32.8929 21.1254 34.1339 21.4876 34.3924 20.7115C35.3749 18.021 36.409 15.3822 37.2881 12.64C37.8569 10.8291 37.4432 9.58729 35.8402 8.55248C34.5475 7.6729 32.8411 6.94855 31.2898 6.79333C30.4625 6.68985 29.6869 6.79333 28.9113 7.15551C28.6527 7.25899 28.4459 7.46592 28.239 7.5694C26.9463 8.44899 26.5843 8.86293 25.1364 8.03509C23.792 7.25898 22.6027 6.22415 20.948 6.43111C19.2416 6.63807 17.9489 8.03509 17.2767 9.53556C16.346 11.5534 16.6563 13.83 16.5011 16.0031C16.2943 18.6936 14.8981 20.9184 14.0708 23.4537C13.4503 25.4198 13.4503 27.1273 14.1226 29.0934C14.6396 30.6456 14.2259 31.2665 13.3986 32.6635C12.6229 33.957 11.7956 35.3022 11.02 36.5957C10.2961 37.734 8.27939 39.9071 9.05502 41.4594C9.31357 42.0285 10.0375 42.3907 10.5546 42.7529C11.7956 43.5807 13.0884 44.3568 14.4328 45.0294C18.0524 46.8921 22.6544 48.5478 26.7394 47.2543C27.9804 46.8404 29.2216 46.116 29.9455 45.0294C30.7211 43.8394 30.4626 42.2355 32.2207 41.8215C33.3583 41.5628 34.8062 41.925 35.9438 41.8733C38.1672 41.7181 40.3906 41.2006 42.459 40.3211C44.5791 39.4415 47.4748 37.941 48.8193 35.9749C49.5432 34.8883 49.2329 33.8018 47.9919 33.4396C47.6299 33.3361 47.2162 33.4396 46.8025 33.3879C45.7683 33.2844 44.8376 32.8187 44.1137 32.0426C42.821 30.6456 42.459 28.576 42.1487 26.8168C41.9936 25.9372 40.7527 26.2994 40.9078 27.1272Z" fill="#272C61"/>
<path d="M21.8791 25.5749C18.7248 21.0217 13.3987 19.8834 9.00341 17.0377C5.84916 14.9681 2.48814 11.398 3.57403 7.31052C4.50479 3.84392 8.12442 2.29169 11.3304 1.51559C14.95 0.636001 18.4145 -0.036619 21.1551 3.01606C22.2409 4.20609 23.4302 5.13741 25.1366 4.67175C27.1015 4.15435 28.3943 2.18821 30.049 1.15341C33.6686 -1.12317 37.0297 1.72255 40.1839 3.37824C42.6143 4.67175 46.8544 4.51655 48.4056 6.79312C49.7501 8.70752 49.4399 11.4497 49.8019 13.6746C50.0604 15.175 50.5258 16.6755 51.7151 17.7103C53.2664 19.1073 55.3348 19.573 55.8002 22.0565C56.1104 24.0226 54.3006 26.6097 53.3698 28.2136C49.957 34.1638 45.4065 39.4413 40.0288 43.7357C37.3399 45.8571 34.0822 48.1336 30.4626 48.0302C28.446 47.9784 26.4294 47.1506 25.2401 45.4949C24.3093 44.2531 24.4127 42.6492 23.5854 41.4074C22.758 40.1139 21.5171 39.9069 20.0692 40.0104C18.4662 40.1139 16.915 40.7865 15.2603 40.683C12.9851 40.5278 10.9167 39.2343 9.26205 37.7856C7.03856 35.8195 4.97012 33.2324 3.52227 30.6454C0.471437 25.0574 5.38374 22.6256 9.93413 21.5908C13.5538 20.763 17.2769 20.4008 20.9999 20.556C23.8439 20.6595 27.0498 21.4874 29.8421 20.556C34.2891 19.1073 33.9271 14.2955 33.7203 10.4667C33.5652 7.10356 33.7204 3.01606 37.5469 1.72255C40.546 0.739486 44.0622 2.03298 46.596 3.68867C49.4917 5.60307 52.1804 8.5523 52.9561 11.9672C53.9385 16.2616 51.3531 20.2973 48.4056 23.1431C44.3723 27.0753 38.9429 29.5589 35.7886 34.3707C33.0481 38.5617 33.1516 43.684 32.4793 48.4958C32.014 51.7555 31.0315 55.1703 28.084 57.0847C24.7747 59.2061 20.7414 58.223 17.6389 56.2569C11.3304 52.2729 9.57219 44.7188 5.5906 38.8721C3.52224 35.8712 -1.33828 33.0772 1.04034 28.9897C3.62579 24.54 9.0035 25.3161 13.2953 25.8335C17.7423 26.4027 23.482 26.4544 25.5504 21.5908C25.6538 21.3839 25.2918 21.2804 25.1884 21.4874C21.5687 30.0763 9.93423 22.5739 3.72915 25.9888C1.86762 27.0236 0.109511 28.938 0.00609343 31.1628C-0.149034 34.0603 2.69489 35.6642 4.29787 37.6821C8.79655 43.3218 10.2962 51.0311 16.191 55.636C20.0692 58.6887 25.8089 60.1892 29.7388 56.3086C33.8238 52.2729 32.9447 45.3397 34.0305 40.1656C35.7887 31.7837 43.2348 28.8862 48.7676 23.4535C53.2146 19.1073 55.3865 13.1054 51.4049 7.72441C48.5092 3.74041 42.3558 -0.502287 37.1849 1.51559C31.652 3.68868 33.8755 10.5184 33.4618 14.9164C32.893 21.2804 26.7913 20.5043 22.0858 20.2456C18.0008 19.9869 13.8641 20.3491 9.88253 21.2804C7.4005 21.8495 4.34959 22.6774 2.85003 24.954C1.29876 27.334 2.53978 29.921 3.98763 32.0424C6.88333 36.3369 11.1235 41.7696 16.9666 41.097C19.6555 40.7865 22.758 39.5965 23.8439 43.1148C24.2575 44.3566 24.5161 45.4949 25.4986 46.478C27.0499 48.0819 29.5319 48.7546 31.7553 48.5476C38.3224 47.875 44.5275 41.097 48.4574 36.3369C50.8877 33.4394 53.0078 30.2832 54.7659 26.9718C55.8001 25.0057 57.2479 22.16 55.6966 20.0904C55.0761 19.2625 54.1454 18.9521 53.3181 18.383C51.3014 17.0377 50.6293 15.4855 50.319 13.1572C50.0088 10.9323 50.1637 8.13835 48.5608 6.32744C47.992 5.65482 47.2164 5.24088 46.3891 4.98218C44.2173 4.30956 42.2523 4.15435 40.2357 3.01606C37.9605 1.77429 35.4785 -0.19185 32.7896 0.0151117C29.9973 0.222073 28.5494 2.65389 26.326 3.99914C23.5854 5.60309 22.1375 2.91258 20.3277 1.51559C19.3969 0.791222 18.4145 0.532507 17.2769 0.532507C12.7265 0.429027 5.53891 1.87777 3.67739 6.68962C1.4539 12.4328 7.50389 16.986 11.9509 19.1591C15.5705 20.97 19.3969 22.5222 21.7755 25.9888C21.7238 25.9888 22.0342 25.7818 21.8791 25.5749Z" fill="#272C61"/>
<path d="M21.8791 25.5749C18.7248 21.0217 13.3987 19.8834 9.00341 17.0377C5.84916 14.9681 2.48814 11.398 3.57403 7.31052C4.50479 3.84392 8.12442 2.29169 11.3304 1.51559C14.95 0.636001 18.4145 -0.036619 21.1551 3.01606C22.2409 4.20609 23.4302 5.13741 25.1366 4.67175C27.1015 4.15435 28.3943 2.18821 30.049 1.15341C33.6686 -1.12317 37.0297 1.72255 40.1839 3.37824C42.6143 4.67175 46.8544 4.51655 48.4056 6.79312C49.7501 8.70752 49.4399 11.4497 49.8019 13.6746C50.0604 15.175 50.5258 16.6755 51.7151 17.7103C53.2664 19.1073 55.3348 19.573 55.8002 22.0565C56.1104 24.0226 54.3006 26.6097 53.3698 28.2136C49.957 34.1638 45.4065 39.4413 40.0288 43.7357C37.3399 45.8571 34.0822 48.1336 30.4626 48.0302C28.446 47.9784 26.4294 47.1506 25.2401 45.4949C24.3093 44.2531 24.4127 42.6492 23.5854 41.4074C22.758 40.1139 21.5171 39.9069 20.0692 40.0104C18.4662 40.1139 16.915 40.7865 15.2603 40.683C12.9851 40.5278 10.9167 39.2343 9.26205 37.7856C7.03856 35.8195 4.97012 33.2324 3.52227 30.6454C0.471437 25.0574 5.38374 22.6256 9.93413 21.5908C13.5538 20.763 17.2769 20.4008 20.9999 20.556C23.8439 20.6595 27.0498 21.4874 29.8421 20.556C34.2891 19.1073 33.9271 14.2955 33.7203 10.4667C33.5652 7.10356 33.7204 3.01606 37.5469 1.72255C40.546 0.739486 44.0622 2.03298 46.596 3.68867C49.4917 5.60307 52.1804 8.5523 52.9561 11.9672C53.9385 16.2616 51.3531 20.2973 48.4056 23.1431C44.3723 27.0753 38.9429 29.5589 35.7886 34.3707C33.0481 38.5617 33.1516 43.684 32.4793 48.4958C32.014 51.7555 31.0315 55.1703 28.084 57.0847C24.7747 59.2061 20.7414 58.223 17.6389 56.2569C11.3304 52.2729 9.57219 44.7188 5.5906 38.8721C3.52224 35.8712 -1.33828 33.0772 1.04034 28.9897C3.62579 24.54 9.0035 25.3161 13.2953 25.8335C17.7423 26.4027 23.482 26.4544 25.5504 21.5908C25.6538 21.3839 25.2918 21.2804 25.1884 21.4874C21.5687 30.0763 9.93423 22.5739 3.72915 25.9888C1.86762 27.0236 0.109511 28.938 0.00609343 31.1628C-0.149034 34.0603 2.69489 35.6642 4.29787 37.6821C8.79655 43.3218 10.2962 51.0311 16.191 55.636C20.0692 58.6887 25.8089 60.1892 29.7388 56.3086C33.8238 52.2729 32.9447 45.3397 34.0305 40.1656C35.7887 31.7837 43.2348 28.8862 48.7676 23.4535C53.2146 19.1073 55.3865 13.1054 51.4049 7.72441C48.5092 3.74041 42.3558 -0.502287 37.1849 1.51559C31.652 3.68868 33.8755 10.5184 33.4618 14.9164C32.893 21.2804 26.7913 20.5043 22.0858 20.2456C18.0008 19.9869 13.8641 20.3491 9.88253 21.2804C7.4005 21.8495 4.34959 22.6774 2.85003 24.954C1.29876 27.334 2.53978 29.921 3.98763 32.0424C6.88333 36.3369 11.1235 41.7696 16.9666 41.097C19.6555 40.7865 22.758 39.5965 23.8439 43.1148C24.2575 44.3566 24.5161 45.4949 25.4986 46.478C27.0499 48.0819 29.5319 48.7546 31.7553 48.5476C38.3224 47.875 44.5275 41.097 48.4574 36.3369C50.8877 33.4394 53.0078 30.2832 54.7659 26.9718C55.8001 25.0057 57.2479 22.16 55.6966 20.0904C55.0761 19.2625 54.1454 18.9521 53.3181 18.383C51.3014 17.0377 50.6293 15.4855 50.319 13.1572C50.0088 10.9323 50.1637 8.13835 48.5608 6.32744C47.992 5.65482 47.2164 5.24088 46.3891 4.98218C44.2173 4.30956 42.2523 4.15435 40.2357 3.01606C37.9605 1.77429 35.4785 -0.19185 32.7896 0.0151117C29.9973 0.222073 28.5494 2.65389 26.326 3.99914C23.5854 5.60309 22.1375 2.91258 20.3277 1.51559C19.3969 0.791222 18.4145 0.532507 17.2769 0.532507C12.7265 0.429027 5.53891 1.87777 3.67739 6.68962C1.4539 12.4328 7.50389 16.986 11.9509 19.1591C15.5705 20.97 19.3969 22.5222 21.7755 25.9888C21.7238 25.9888 22.0342 25.7818 21.8791 25.5749Z" fill="#272C61"/>
</svg>
