<svg width="3" height="70" viewBox="0 0 3 120" fill="none" xmlns="http://www.w3.org/2000/svg">
<path d="M1.39911 117.325C0.70257 109.695 0.884284 101.921 1.97453 94.3909C2.19409 92.8561 2.56507 91.3101 2.67864 89.753C2.79221 88.1959 2.36824 86.9169 1.84583 85.5266C0.589023 82.19 0.906993 78.6087 1.1417 74.9606C1.62625 67.6312 0.165038 60.3907 0.732874 53.0723C1.02815 49.3019 1.5884 45.5872 1.88368 41.8168C2.17895 38.0464 2.33794 34.2649 2.42122 30.4722C2.51208 26.3126 2.50452 22.1418 2.48181 17.9821C2.47424 15.8022 2.45151 13.6334 2.44394 11.4534C2.44394 10.8083 2.26981 4.59109 2.50452 4.52436L2.82249 4.71343L2.76951 4.59109C2.58023 4.13508 2.08809 4.55772 2.27737 5.01373L2.33037 5.13607C2.39851 5.3029 2.52723 5.36964 2.64837 5.32515C3.5342 5.06934 2.53479 2.67809 1.96695 4.63558C1.80039 5.21393 1.86854 5.94799 1.86097 6.5597C1.86097 7.64967 1.86097 8.72851 1.86097 9.81848C1.86097 11.9984 1.87612 14.1672 1.89126 16.3472C1.93668 24.8444 1.96697 33.364 1.30071 41.8168C0.960008 46.121 0.240746 50.3697 0.0438966 54.6962C-0.145382 58.9114 0.324031 63.0822 0.566307 67.2753C0.672304 69.1883 0.732876 71.1124 0.664736 73.0365C0.581453 75.1497 0.346731 77.2518 0.316447 79.3761C0.293733 80.9888 0.377021 82.6349 0.748008 84.1586C1.26285 86.2496 2.31523 87.7622 2.04267 90.1423C1.77011 92.5447 1.26284 94.8914 0.997845 97.2938C0.76314 99.4181 0.589016 101.565 0.490591 103.711C0.278599 108.338 0.399739 112.965 0.823724 117.547C0.86915 118.081 1.42184 117.847 1.36885 117.325H1.39911Z" fill="#9B1915"/>
<path d="M1.76259 119.691C2.12097 116.921 2.22155 113.973 2.08323 111.147C1.91976 107.787 0.863479 104.884 0.901203 101.468C0.945215 97.3301 1.34761 93.1694 1.49222 89.031C1.63683 84.8926 1.6997 81.0435 1.70598 77.0497C1.71227 68.9954 1.27216 61.0079 1.70598 52.9759C2.15239 44.7992 1.93863 36.6448 1.79402 28.4459C1.63055 19.1011 1.47337 9.74524 1.3099 0.400489C1.30361 -0.133497 0.832058 -0.133497 0.838345 0.400489C0.982954 8.65502 1.12127 16.8984 1.26588 25.153C1.4042 33.2518 1.75001 41.4395 1.4105 49.5272C1.24074 53.521 0.957799 57.4591 0.989236 61.4751C1.02067 65.4022 1.17785 69.3181 1.21557 73.2451C1.29731 81.4217 1.09612 89.5984 0.61199 97.7306C0.49253 99.7108 0.335351 101.724 0.498822 103.716C0.662294 105.707 1.20929 107.398 1.45449 109.3C1.86317 112.526 1.71857 116.275 1.3036 119.479C1.23444 120.002 1.69342 120.225 1.75629 119.702L1.76259 119.691Z" fill="#9B1915"/>
</svg>
